<?xml version="1.0" encoding="iso-8859-1"?>
<!-- Generator: Adobe Illustrator 17.1.0, SVG Export Plug-In . SVG Version: 6.00 Build 0)  -->
<!DOCTYPE svg PUBLIC "-//W3C//DTD SVG 1.1//EN" "http://www.w3.org/Graphics/SVG/1.1/DTD/svg11.dtd">
<svg version="1.1" id="Capa_1" xmlns="http://www.w3.org/2000/svg" xmlns:xlink="http://www.w3.org/1999/xlink" x="0px" y="0px"
	 viewBox="0 0 470 470" style="enable-background:new 0 0 470 470;" xml:space="preserve">
<g>
	<path d="M416.865,340c0.135-0.234,0.255-0.472,0.362-0.714C434.89,308.542,445,272.929,445,235s-10.11-73.542-27.773-104.286
		c-0.107-0.241-0.227-0.48-0.362-0.714c-0.151-0.261-0.319-0.506-0.495-0.742c-7.066-12.073-15.303-23.378-24.553-33.765
		c-0.223-0.351-0.47-0.691-0.757-1.01c-0.271-0.301-0.565-0.567-0.871-0.813c-9.35-10.258-19.707-19.581-30.903-27.829
		c-0.264-0.26-0.543-0.51-0.853-0.734c-0.301-0.219-0.615-0.402-0.934-0.57c-11.469-8.265-23.799-15.406-36.833-21.252
		c-0.085-0.042-0.166-0.089-0.253-0.128c-0.11-0.049-0.223-0.086-0.334-0.129C294.058,31.448,265.27,25,235,25
		c-30.269,0-59.057,6.448-85.078,18.025c-0.112,0.044-0.225,0.081-0.336,0.13c-0.087,0.039-0.168,0.086-0.253,0.128
		c-13.034,5.847-25.365,12.988-36.835,21.254c-0.319,0.167-0.632,0.351-0.932,0.568c-0.309,0.225-0.588,0.474-0.853,0.734
		c-11.196,8.248-21.553,17.572-30.904,27.831c-0.305,0.246-0.599,0.511-0.869,0.812c-0.287,0.319-0.534,0.66-0.757,1.01
		c-9.25,10.387-17.487,21.692-24.553,33.765c-0.176,0.236-0.344,0.481-0.495,0.742c-0.135,0.234-0.255,0.472-0.362,0.714
		C35.11,161.458,25,197.071,25,235s10.11,73.542,27.773,104.286c0.107,0.241,0.227,0.48,0.362,0.714
		c0.143,0.247,0.305,0.476,0.47,0.701c7.071,12.088,15.317,23.408,24.578,33.806c0.223,0.351,0.47,0.691,0.757,1.01
		c0.269,0.299,0.562,0.561,0.864,0.806c9.352,10.261,19.711,19.586,30.909,27.836c0.264,0.26,0.543,0.51,0.853,0.734
		c0.303,0.22,0.619,0.406,0.941,0.575c11.467,8.263,23.795,15.402,36.826,21.248c0.085,0.042,0.166,0.089,0.253,0.128
		c0.105,0.047,0.212,0.08,0.318,0.122C175.93,438.549,204.724,445,235,445c30.276,0,59.07-6.451,85.096-18.033
		c0.106-0.042,0.213-0.075,0.318-0.122c0.087-0.039,0.168-0.086,0.253-0.128c13.031-5.846,25.359-12.985,36.827-21.249
		c0.322-0.168,0.638-0.354,0.94-0.574c0.309-0.225,0.588-0.474,0.853-0.734c11.198-8.25,21.558-17.575,30.91-27.837
		c0.302-0.245,0.595-0.507,0.864-0.806c0.287-0.319,0.534-0.66,0.757-1.01c9.261-10.399,17.507-21.719,24.578-33.807
		C416.561,340.475,416.723,340.247,416.865,340z M355.553,388.167l-4.357-5.997c-2.434-3.351-7.125-4.093-10.476-1.66
		c-3.351,2.435-4.094,7.125-1.66,10.476l4.367,6.01c-7.126,4.785-14.586,9.106-22.333,12.934l-3.036-6.819
		c-1.685-3.784-6.118-5.486-9.902-3.801c-3.784,1.685-5.486,6.118-3.801,9.902l3.046,6.842c-7.941,3.187-16.136,5.866-24.55,7.997
		l-1.561-7.345c-0.861-4.052-4.845-6.64-8.895-5.777c-4.052,0.861-6.638,4.844-5.777,8.895l1.56,7.339
		c-8.39,1.444-16.962,2.346-25.678,2.678v-7.481c0-4.142-3.358-7.5-7.5-7.5s-7.5,3.358-7.5,7.5v7.481
		c-8.716-0.332-17.288-1.234-25.678-2.678l1.56-7.339c0.861-4.051-1.725-8.034-5.777-8.895c-4.052-0.863-8.034,1.726-8.895,5.777
		l-1.561,7.345c-8.413-2.13-16.609-4.81-24.55-7.997l3.046-6.842c1.685-3.784-0.017-8.217-3.801-9.902
		c-3.785-1.685-8.218,0.017-9.902,3.801l-3.036,6.819c-7.747-3.828-15.207-8.149-22.333-12.934l4.367-6.01
		c2.435-3.351,1.691-8.041-1.66-10.476c-3.352-2.436-8.042-1.691-10.476,1.66l-4.357,5.997
		c-6.763-5.334-13.158-11.113-19.157-17.279l5.492-4.945c3.078-2.772,3.327-7.514,0.555-10.592
		c-2.772-3.079-7.514-3.327-10.592-0.555l-5.501,4.953c-5.506-6.598-10.582-13.565-15.191-20.856l6.437-3.717
		c3.587-2.071,4.816-6.658,2.745-10.245c-2.071-3.588-6.657-4.817-10.245-2.745l-6.456,3.728
		c-4.01-7.576-7.543-15.441-10.542-23.564l7.135-2.318c3.939-1.28,6.095-5.511,4.815-9.451s-5.513-6.093-9.451-4.815l-7.146,2.322
		c-2.327-8.213-4.116-16.648-5.352-25.26l7.456-0.784c4.119-0.433,7.108-4.124,6.675-8.243s-4.124-7.104-8.243-6.675l-7.444,0.782
		C40.158,243.64,40,239.338,40,235s0.158-8.64,0.438-12.908l7.444,0.782c0.267,0.028,0.531,0.042,0.793,0.042
		c3.79,0,7.044-2.864,7.45-6.716c0.433-4.12-2.556-7.81-6.675-8.243l-7.456-0.784c1.236-8.611,3.025-17.047,5.352-25.26l7.146,2.322
		c0.77,0.25,1.551,0.369,2.319,0.369c3.162,0,6.102-2.015,7.131-5.184c1.28-3.939-0.875-8.171-4.815-9.451l-7.135-2.318
		c2.999-8.123,6.532-15.988,10.542-23.564l6.456,3.728c1.181,0.682,2.471,1.006,3.743,1.006c2.592,0,5.113-1.346,6.502-3.751
		c2.071-3.587,0.842-8.174-2.745-10.245l-6.437-3.717c4.609-7.291,9.685-14.258,15.191-20.856l5.501,4.953
		c1.434,1.291,3.228,1.926,5.016,1.926c2.052,0,4.095-0.837,5.576-2.481c2.771-3.078,2.523-7.82-0.555-10.592l-5.492-4.945
		c5.999-6.166,12.394-11.945,19.157-17.279l4.357,5.997c1.468,2.02,3.755,3.092,6.074,3.092c1.528,0,3.071-0.466,4.402-1.433
		c3.351-2.435,4.094-7.125,1.66-10.476l-4.367-6.01c7.126-4.785,14.586-9.106,22.333-12.934l3.036,6.819
		c1.244,2.793,3.984,4.452,6.856,4.452c1.019,0,2.055-0.209,3.046-0.65c3.784-1.685,5.486-6.118,3.801-9.902l-3.046-6.842
		c7.941-3.187,16.136-5.866,24.55-7.997l1.561,7.345c0.749,3.526,3.863,5.942,7.329,5.942c0.517,0,1.041-0.054,1.566-0.166
		c4.052-0.861,6.638-4.844,5.777-8.895l-1.56-7.339c8.39-1.444,16.962-2.346,25.678-2.678v7.481c0,4.142,3.358,7.5,7.5,7.5
		s7.5-3.358,7.5-7.5v-7.481c8.716,0.332,17.288,1.234,25.678,2.678l-1.56,7.339c-0.861,4.051,1.725,8.034,5.777,8.895
		c0.525,0.112,1.05,0.166,1.566,0.166c3.466,0,6.58-2.417,7.329-5.942l1.561-7.345c8.413,2.13,16.609,4.81,24.55,7.997l-3.046,6.842
		c-1.685,3.784,0.017,8.217,3.801,9.902c0.991,0.441,2.027,0.65,3.046,0.65c2.872,0,5.613-1.659,6.856-4.452l3.036-6.819
		c7.747,3.828,15.207,8.149,22.333,12.934l-4.367,6.01c-2.435,3.351-1.691,8.041,1.66,10.476c1.331,0.967,2.874,1.433,4.402,1.433
		c2.319,0,4.606-1.072,6.074-3.092l4.357-5.997c6.763,5.334,13.158,11.113,19.157,17.279l-5.492,4.945
		c-3.078,2.772-3.327,7.514-0.555,10.592c1.481,1.645,3.524,2.481,5.576,2.481c1.788,0,3.583-0.636,5.016-1.926l5.501-4.953
		c5.506,6.598,10.582,13.565,15.191,20.856l-6.437,3.717c-3.587,2.071-4.816,6.658-2.745,10.245c1.389,2.406,3.91,3.751,6.502,3.751
		c1.272,0,2.562-0.324,3.743-1.006l6.456-3.728c4.01,7.576,7.543,15.441,10.542,23.564l-7.135,2.318
		c-3.939,1.28-6.095,5.511-4.815,9.451c1.03,3.169,3.97,5.184,7.131,5.184c0.768,0,1.549-0.119,2.319-0.369l7.146-2.322
		c2.327,8.213,4.116,16.648,5.352,25.26l-7.456,0.784c-4.119,0.433-7.108,4.124-6.675,8.243c0.405,3.853,3.66,6.716,7.45,6.716
		c0.262,0,0.527-0.014,0.793-0.042l7.444-0.782c0.28,4.268,0.438,8.57,0.438,12.908s-0.158,8.64-0.438,12.908l-7.444-0.782
		c-4.117-0.431-7.81,2.556-8.243,6.675c-0.433,4.12,2.556,7.81,6.675,8.243l7.456,0.784c-1.236,8.611-3.025,17.047-5.352,25.26
		l-7.146-2.322c-3.941-1.281-8.171,0.876-9.451,4.815c-1.28,3.939,0.875,8.171,4.815,9.451l7.135,2.318
		c-2.999,8.123-6.532,15.988-10.542,23.564l-6.456-3.728c-3.588-2.072-8.174-0.842-10.245,2.745
		c-2.071,3.587-0.842,8.174,2.745,10.245l6.437,3.717c-4.609,7.291-9.685,14.258-15.191,20.856l-5.501-4.953
		c-3.078-2.771-7.82-2.522-10.592,0.555c-2.771,3.078-2.523,7.82,0.555,10.592l5.492,4.945
		C368.71,377.054,362.315,382.833,355.553,388.167z"/>
	<path d="M209.565,303.628c0,4.142,3.358,7.5,7.5,7.5h38.832c4.142,0,7.5-3.358,7.5-7.5c0-3.042-1.814-5.654-4.416-6.831v-13.169
		c0-4.142-3.358-7.5-7.5-7.5s-7.5,3.358-7.5,7.5v12.5h-15V185.103l15-6.974v75.499c0,4.142,3.358,7.5,7.5,7.5s7.5-3.358,7.5-7.5
		v-87.257c0-2.562-1.307-4.946-3.467-6.323c-2.16-1.377-4.872-1.558-7.195-0.478l-37.379,17.378
		c-3.756,1.746-5.385,6.207-3.639,9.963c1.252,2.692,3.899,4.282,6.68,4.33v105.555
		C211.379,297.974,209.565,300.587,209.565,303.628z"/>
	<path d="M401.17,68.83C356.785,24.444,297.771,0,235,0S113.215,24.444,68.83,68.83C24.444,113.215,0,172.229,0,235
		s24.444,121.785,68.83,166.17C113.215,445.556,172.229,470,235,470s121.785-24.444,166.17-68.83
		C445.556,356.785,470,297.771,470,235S445.556,113.215,401.17,68.83z M235,455c-121.309,0-220-98.691-220-220S113.691,15,235,15
		s220,98.691,220,220S356.309,455,235,455z"/>
	<path d="M139.462,145.37C164.5,118.692,198.43,104,235,104c36.572,0,70.502,14.693,95.541,41.373
		c1.476,1.573,3.471,2.368,5.47,2.368c1.84,0,3.684-0.673,5.131-2.031c3.021-2.834,3.171-7.581,0.336-10.601
		C313.979,105.806,275.168,89,235,89c-40.167,0-78.976,16.804-106.476,46.104c-2.834,3.021-2.684,7.767,0.336,10.602
		C131.881,148.54,136.627,148.39,139.462,145.37z"/>
	<path d="M191.219,228.75c-4.063-0.809-8.01,1.834-8.816,5.896l-9.432,47.523c-2.097,10.563-8.182,19.679-17.134,25.666
		c-6.838,4.573-14.722,6.894-22.771,6.806l1.976-9.955l21.547-13.456c0.051-0.032,0.097-0.07,0.147-0.103
		c0.125-0.083,0.249-0.167,0.369-0.257c0.082-0.062,0.162-0.125,0.241-0.189c0.101-0.082,0.199-0.167,0.296-0.254
		c0.082-0.074,0.164-0.148,0.242-0.225c0.087-0.086,0.17-0.176,0.253-0.266c0.075-0.082,0.152-0.163,0.223-0.248
		c0.084-0.099,0.161-0.204,0.24-0.308c0.06-0.08,0.123-0.157,0.18-0.239c0.103-0.147,0.197-0.302,0.289-0.457
		c0.025-0.042,0.054-0.082,0.078-0.125c0.116-0.205,0.222-0.416,0.319-0.633c0.008-0.018,0.014-0.037,0.022-0.055
		c0.085-0.194,0.163-0.392,0.231-0.595c0.026-0.076,0.045-0.154,0.068-0.231c0.044-0.145,0.088-0.289,0.123-0.437
		c0.027-0.112,0.045-0.225,0.066-0.338c0.019-0.098,0.043-0.195,0.058-0.295l7.362-49.407c0-0.002,0.001-0.005,0.001-0.007
		l7.45-50.003c0.464-3.115-1.067-6.188-3.833-7.693c-2.765-1.505-6.178-1.123-8.541,0.958l-3.21,2.826l3.717-18.725
		c0.807-4.063-1.833-8.01-5.896-8.816c-4.059-0.809-8.01,1.833-8.816,5.896l-3.716,18.724l-1.887-3.837
		c-1.39-2.826-4.403-4.484-7.528-4.147c-3.131,0.335-5.72,2.59-6.48,5.646l-24.239,97.382c-0.009,0.032-0.016,0.065-0.024,0.098
		l-0.014,0.056c-0.008,0.031-0.011,0.063-0.018,0.094c-0.047,0.202-0.089,0.405-0.12,0.611c-0.01,0.068-0.016,0.136-0.024,0.204
		c-0.021,0.174-0.039,0.348-0.048,0.523c-0.004,0.083-0.004,0.166-0.005,0.249c-0.003,0.161-0.004,0.322,0.004,0.484
		c0.004,0.084,0.012,0.168,0.019,0.252c0.013,0.161,0.028,0.321,0.052,0.481c0.011,0.077,0.026,0.153,0.04,0.229
		c0.029,0.166,0.062,0.331,0.103,0.496c0.016,0.066,0.036,0.13,0.054,0.195c0.047,0.17,0.098,0.339,0.158,0.507
		c0.021,0.059,0.045,0.117,0.068,0.176c0.064,0.167,0.132,0.333,0.208,0.496c0.029,0.061,0.061,0.121,0.092,0.181
		c0.078,0.154,0.157,0.307,0.246,0.458c0.042,0.071,0.089,0.139,0.134,0.208c0.071,0.111,0.135,0.224,0.213,0.332l14.777,20.667
		l-1.976,9.955c-7.473-2.993-13.873-8.15-18.446-14.987c-5.987-8.952-8.13-19.7-6.033-30.264l9.432-47.524
		c0.807-4.063-1.833-8.01-5.896-8.816c-4.062-0.809-8.01,1.834-8.816,5.896l-9.432,47.524c-2.877,14.494,0.063,29.24,8.278,41.523
		c6.807,10.178,16.567,17.643,27.958,21.543l-2.383,12.004c-0.807,4.063,1.833,8.01,5.896,8.816
		c0.493,0.098,0.984,0.145,1.468,0.145c3.506,0,6.64-2.472,7.349-6.042l2.382-12.004c1.144,0.071,2.287,0.119,3.428,0.119
		c10.834,0,21.43-3.194,30.639-9.354c12.283-8.214,20.631-20.721,23.508-35.214l9.432-47.523
		C197.922,233.503,195.282,229.556,191.219,228.75z M126.682,247.416l4.874,7.974c1.093,1.788,2.884,3.037,4.939,3.445
		c0.484,0.096,0.973,0.144,1.46,0.144c1.576,0,3.126-0.497,4.42-1.441l7.55-5.508l-4.219,28.313l-15.387,9.609l-10.551-14.758
		L126.682,247.416z M138.256,200.918l2.609,5.304c0.016,0.033,0.038,0.063,0.054,0.096c0.088,0.171,0.184,0.338,0.284,0.502
		c0.041,0.068,0.079,0.138,0.123,0.204c0.146,0.222,0.301,0.438,0.469,0.643c0.019,0.022,0.04,0.042,0.059,0.065
		c0.153,0.183,0.315,0.358,0.485,0.526c0.056,0.055,0.115,0.105,0.172,0.158c0.141,0.13,0.285,0.257,0.436,0.376
		c0.067,0.053,0.135,0.103,0.203,0.153c0.151,0.111,0.306,0.217,0.466,0.317c0.072,0.045,0.143,0.089,0.216,0.132
		c0.164,0.095,0.333,0.183,0.506,0.266c0.075,0.036,0.149,0.074,0.225,0.108c0.18,0.079,0.365,0.148,0.553,0.214
		c0.073,0.026,0.144,0.056,0.219,0.079c0.245,0.077,0.496,0.143,0.753,0.195c0.016,0.003,0.031,0.009,0.046,0.012
		c0.014,0.003,0.029,0.003,0.043,0.006c0.257,0.05,0.513,0.084,0.768,0.106c0.074,0.007,0.147,0.007,0.221,0.011
		c0.145,0.008,0.291,0.021,0.435,0.021c0.059,0,0.116-0.006,0.174-0.008c0.064-0.002,0.127-0.005,0.19-0.009
		c0.216-0.01,0.43-0.03,0.642-0.059c0.051-0.007,0.102-0.012,0.152-0.02c0.521-0.082,1.027-0.219,1.513-0.405
		c0.066-0.025,0.13-0.053,0.195-0.08c0.18-0.075,0.357-0.157,0.53-0.246c0.065-0.033,0.13-0.064,0.194-0.099
		c0.221-0.121,0.438-0.251,0.646-0.394c0.041-0.028,0.079-0.06,0.12-0.089c0.172-0.123,0.339-0.254,0.501-0.392
		c0.029-0.025,0.061-0.045,0.09-0.071l4.437-3.905l-3.958,26.562l-12.919,9.425l-8.341-13.644L138.256,200.918z"/>
	<path d="M354.604,326.618c11.391-3.9,21.151-11.365,27.958-21.543c8.215-12.283,11.155-27.029,8.278-41.523l-9.432-47.524
		c-0.806-4.063-4.752-6.704-8.816-5.896c-4.063,0.806-6.703,4.753-5.896,8.816l9.432,47.524c2.097,10.564-0.046,21.312-6.033,30.264
		c-4.573,6.837-10.973,11.994-18.446,14.987l-1.976-9.955l14.777-20.667c0.077-0.108,0.142-0.221,0.213-0.332
		c0.044-0.07,0.092-0.137,0.134-0.208c0.089-0.15,0.169-0.303,0.246-0.458c0.03-0.06,0.063-0.12,0.092-0.181
		c0.077-0.163,0.144-0.329,0.208-0.496c0.023-0.059,0.047-0.116,0.068-0.176c0.06-0.168,0.111-0.337,0.158-0.508
		c0.018-0.065,0.037-0.129,0.054-0.194c0.041-0.165,0.074-0.331,0.103-0.497c0.014-0.076,0.028-0.152,0.04-0.228
		c0.023-0.16,0.039-0.32,0.052-0.481c0.007-0.084,0.015-0.168,0.019-0.252c0.007-0.161,0.007-0.322,0.004-0.484
		c-0.002-0.083-0.001-0.166-0.005-0.249c-0.009-0.175-0.027-0.349-0.048-0.523c-0.008-0.068-0.014-0.136-0.024-0.204
		c-0.031-0.205-0.072-0.408-0.12-0.611c-0.007-0.031-0.011-0.063-0.018-0.094l-0.014-0.056c-0.008-0.033-0.016-0.065-0.024-0.098
		l-24.239-97.382c-0.76-3.056-3.349-5.311-6.48-5.646c-3.127-0.337-6.137,1.321-7.528,4.147l-1.887,3.837l-3.716-18.724
		c-0.807-4.063-4.758-6.702-8.816-5.896c-4.063,0.806-6.703,4.753-5.896,8.816l3.717,18.725l-3.21-2.826
		c-2.364-2.081-5.775-2.463-8.541-0.958c-2.766,1.505-4.297,4.578-3.833,7.693l7.45,50.003c0,0.002,0.001,0.005,0.001,0.007
		l7.362,49.407c0.015,0.1,0.039,0.197,0.058,0.295c0.021,0.113,0.04,0.226,0.066,0.337c0.036,0.15,0.08,0.295,0.124,0.441
		c0.023,0.075,0.041,0.152,0.067,0.227c0.07,0.207,0.149,0.408,0.235,0.606c0.006,0.015,0.011,0.03,0.018,0.044
		c0.097,0.218,0.204,0.429,0.32,0.635c0.021,0.038,0.047,0.074,0.069,0.111c0.095,0.161,0.192,0.319,0.298,0.471
		c0.055,0.079,0.116,0.153,0.173,0.23c0.081,0.107,0.161,0.215,0.247,0.317c0.07,0.083,0.145,0.162,0.218,0.243
		c0.085,0.092,0.169,0.184,0.258,0.271c0.077,0.076,0.157,0.149,0.238,0.222c0.098,0.089,0.198,0.175,0.301,0.258
		c0.078,0.063,0.156,0.125,0.237,0.186c0.122,0.091,0.247,0.177,0.374,0.261c0.049,0.032,0.094,0.069,0.144,0.1l21.547,13.456
		l1.976,9.955c-8.049,0.088-15.934-2.234-22.771-6.806c-8.952-5.987-15.037-15.103-17.134-25.666l-9.432-47.523
		c-0.807-4.063-4.754-6.702-8.816-5.896c-4.063,0.806-6.703,4.753-5.896,8.816l9.432,47.523c2.876,14.494,11.225,27,23.508,35.214
		c9.21,6.16,19.804,9.354,30.639,9.354c1.14,0,2.283-0.049,3.428-0.12l2.382,12.004c0.708,3.57,3.842,6.042,7.349,6.042
		c0.484,0,0.975-0.047,1.468-0.145c4.063-0.806,6.703-4.753,5.896-8.816L354.604,326.618z M324.293,280.342l-4.219-28.313
		l7.55,5.508c1.293,0.944,2.844,1.441,4.42,1.441c0.486,0,0.976-0.047,1.46-0.144c2.055-0.408,3.846-1.657,4.939-3.445l4.874-7.974
		l6.914,27.778l-10.551,14.758L324.293,280.342z M338.23,226.978l-8.341,13.644l-12.919-9.425l-3.958-26.562l4.437,3.905
		c0.028,0.024,0.059,0.044,0.087,0.068c0.165,0.141,0.336,0.275,0.513,0.401c0.037,0.026,0.072,0.056,0.109,0.081
		c0.21,0.144,0.428,0.275,0.651,0.398c0.061,0.033,0.123,0.063,0.185,0.094c0.177,0.091,0.357,0.174,0.541,0.25
		c0.062,0.026,0.124,0.052,0.187,0.077c0.487,0.187,0.996,0.325,1.519,0.407c0.048,0.008,0.096,0.012,0.145,0.019
		c0.215,0.03,0.432,0.05,0.651,0.06c0.061,0.003,0.122,0.007,0.184,0.008c0.059,0.001,0.118,0.008,0.177,0.008
		c0.144,0,0.291-0.013,0.436-0.021c0.074-0.004,0.147-0.004,0.221-0.011c0.255-0.022,0.51-0.057,0.767-0.106
		c0.015-0.003,0.029-0.003,0.044-0.006c0.016-0.003,0.031-0.009,0.046-0.012c0.257-0.053,0.508-0.118,0.753-0.195
		c0.074-0.023,0.145-0.053,0.219-0.079c0.188-0.066,0.374-0.135,0.553-0.214c0.076-0.034,0.15-0.072,0.225-0.108
		c0.172-0.083,0.342-0.171,0.506-0.266c0.073-0.042,0.145-0.087,0.216-0.132c0.16-0.1,0.315-0.206,0.466-0.317
		c0.068-0.05,0.137-0.1,0.203-0.153c0.151-0.119,0.295-0.246,0.436-0.376c0.057-0.053,0.117-0.103,0.172-0.158
		c0.17-0.168,0.332-0.343,0.485-0.526c0.019-0.022,0.04-0.042,0.059-0.065c0.168-0.206,0.324-0.421,0.469-0.643
		c0.043-0.066,0.081-0.136,0.123-0.204c0.1-0.164,0.196-0.33,0.284-0.502c0.017-0.033,0.038-0.063,0.054-0.096l2.609-5.304
		L338.23,226.978z"/>
	<path d="M260.253,365h-50.506c-4.142,0-7.5,3.358-7.5,7.5s3.358,7.5,7.5,7.5h50.506c4.142,0,7.5-3.358,7.5-7.5
		S264.395,365,260.253,365z"/>
	<path d="M272.253,330.564h-74.506c-4.142,0-7.5,3.358-7.5,7.5s3.358,7.5,7.5,7.5h74.506c4.142,0,7.5-3.358,7.5-7.5
		S276.395,330.564,272.253,330.564z"/>
</g>
<g>
</g>
<g>
</g>
<g>
</g>
<g>
</g>
<g>
</g>
<g>
</g>
<g>
</g>
<g>
</g>
<g>
</g>
<g>
</g>
<g>
</g>
<g>
</g>
<g>
</g>
<g>
</g>
<g>
</g>
</svg>
